<mxfile host="app.diagrams.net" modified="2023-11-23T07:32:48.723Z" agent="Mozilla/5.0 (Windows NT 10.0; Win64; x64) AppleWebKit/537.36 (KHTML, like Gecko) Chrome/119.0.0.0 Safari/537.36 Edg/119.0.0.0" version="22.1.3" etag="AhEAj8Mj_qmXsG2KSnbv" type="device">
  <diagram id="C5RBs43oDa-KdzZeNtuy" name="Page-1">
    <mxGraphModel dx="2343" dy="1322" grid="1" gridSize="10" guides="1" tooltips="1" connect="1" arrows="1" fold="1" page="1" pageScale="1" pageWidth="827" pageHeight="1169" math="0" shadow="0">
      <root>
        <mxCell id="WIyWlLk6GJQsqaUBKTNV-0" />
        <mxCell id="WIyWlLk6GJQsqaUBKTNV-1" parent="WIyWlLk6GJQsqaUBKTNV-0" />
        <mxCell id="y2yPE-2E8iy_GQuQBq91-1" value="" style="edgeStyle=none;curved=1;rounded=0;orthogonalLoop=1;jettySize=auto;html=1;fontSize=12;startSize=8;endSize=8;" edge="1" parent="WIyWlLk6GJQsqaUBKTNV-1" source="WIyWlLk6GJQsqaUBKTNV-3" target="y2yPE-2E8iy_GQuQBq91-0">
          <mxGeometry relative="1" as="geometry" />
        </mxCell>
        <mxCell id="WIyWlLk6GJQsqaUBKTNV-3" value="开始" style="rounded=1;whiteSpace=wrap;html=1;fontSize=12;glass=0;strokeWidth=1;shadow=0;" parent="WIyWlLk6GJQsqaUBKTNV-1" vertex="1">
          <mxGeometry x="160" y="150" width="120" height="40" as="geometry" />
        </mxCell>
        <mxCell id="y2yPE-2E8iy_GQuQBq91-3" value="" style="edgeStyle=none;curved=1;rounded=0;orthogonalLoop=1;jettySize=auto;html=1;fontSize=12;startSize=8;endSize=8;" edge="1" parent="WIyWlLk6GJQsqaUBKTNV-1" source="y2yPE-2E8iy_GQuQBq91-0" target="y2yPE-2E8iy_GQuQBq91-2">
          <mxGeometry relative="1" as="geometry" />
        </mxCell>
        <mxCell id="y2yPE-2E8iy_GQuQBq91-0" value="MPI_init()" style="rounded=1;whiteSpace=wrap;html=1;fontSize=12;glass=0;strokeWidth=1;shadow=0;" vertex="1" parent="WIyWlLk6GJQsqaUBKTNV-1">
          <mxGeometry x="160" y="220" width="120" height="40" as="geometry" />
        </mxCell>
        <mxCell id="y2yPE-2E8iy_GQuQBq91-5" value="" style="edgeStyle=none;curved=1;rounded=0;orthogonalLoop=1;jettySize=auto;html=1;fontSize=12;startSize=8;endSize=8;" edge="1" parent="WIyWlLk6GJQsqaUBKTNV-1" source="y2yPE-2E8iy_GQuQBq91-2" target="y2yPE-2E8iy_GQuQBq91-4">
          <mxGeometry relative="1" as="geometry" />
        </mxCell>
        <mxCell id="y2yPE-2E8iy_GQuQBq91-2" value="MPI_Comm_rank()" style="rounded=1;whiteSpace=wrap;html=1;fontSize=12;glass=0;strokeWidth=1;shadow=0;" vertex="1" parent="WIyWlLk6GJQsqaUBKTNV-1">
          <mxGeometry x="160" y="300" width="120" height="40" as="geometry" />
        </mxCell>
        <mxCell id="y2yPE-2E8iy_GQuQBq91-7" value="" style="edgeStyle=none;curved=1;rounded=0;orthogonalLoop=1;jettySize=auto;html=1;fontSize=12;startSize=8;endSize=8;" edge="1" parent="WIyWlLk6GJQsqaUBKTNV-1" source="y2yPE-2E8iy_GQuQBq91-4" target="y2yPE-2E8iy_GQuQBq91-6">
          <mxGeometry relative="1" as="geometry" />
        </mxCell>
        <mxCell id="y2yPE-2E8iy_GQuQBq91-4" value="MPI_Comm_size()" style="rounded=1;whiteSpace=wrap;html=1;fontSize=12;glass=0;strokeWidth=1;shadow=0;" vertex="1" parent="WIyWlLk6GJQsqaUBKTNV-1">
          <mxGeometry x="160" y="370" width="120" height="40" as="geometry" />
        </mxCell>
        <mxCell id="y2yPE-2E8iy_GQuQBq91-9" value="" style="edgeStyle=none;curved=1;rounded=0;orthogonalLoop=1;jettySize=auto;html=1;fontSize=12;startSize=8;endSize=8;" edge="1" parent="WIyWlLk6GJQsqaUBKTNV-1" source="y2yPE-2E8iy_GQuQBq91-6" target="y2yPE-2E8iy_GQuQBq91-8">
          <mxGeometry relative="1" as="geometry" />
        </mxCell>
        <mxCell id="y2yPE-2E8iy_GQuQBq91-6" value="矩阵读入" style="rounded=1;whiteSpace=wrap;html=1;fontSize=12;glass=0;strokeWidth=1;shadow=0;" vertex="1" parent="WIyWlLk6GJQsqaUBKTNV-1">
          <mxGeometry x="160" y="440" width="120" height="40" as="geometry" />
        </mxCell>
        <mxCell id="y2yPE-2E8iy_GQuQBq91-11" value="" style="edgeStyle=none;curved=1;rounded=0;orthogonalLoop=1;jettySize=auto;html=1;fontSize=12;startSize=8;endSize=8;" edge="1" parent="WIyWlLk6GJQsqaUBKTNV-1" source="y2yPE-2E8iy_GQuQBq91-8" target="y2yPE-2E8iy_GQuQBq91-10">
          <mxGeometry relative="1" as="geometry" />
        </mxCell>
        <mxCell id="y2yPE-2E8iy_GQuQBq91-8" value="MPI_Bcast()" style="rounded=1;whiteSpace=wrap;html=1;fontSize=12;glass=0;strokeWidth=1;shadow=0;" vertex="1" parent="WIyWlLk6GJQsqaUBKTNV-1">
          <mxGeometry x="160" y="520" width="120" height="40" as="geometry" />
        </mxCell>
        <mxCell id="y2yPE-2E8iy_GQuQBq91-15" value="" style="edgeStyle=none;curved=1;rounded=0;orthogonalLoop=1;jettySize=auto;html=1;fontSize=12;startSize=8;endSize=8;" edge="1" parent="WIyWlLk6GJQsqaUBKTNV-1" source="y2yPE-2E8iy_GQuQBq91-10" target="y2yPE-2E8iy_GQuQBq91-14">
          <mxGeometry relative="1" as="geometry" />
        </mxCell>
        <mxCell id="y2yPE-2E8iy_GQuQBq91-37" value="Y" style="edgeLabel;html=1;align=center;verticalAlign=middle;resizable=0;points=[];fontSize=16;" vertex="1" connectable="0" parent="y2yPE-2E8iy_GQuQBq91-15">
          <mxGeometry x="-0.4139" y="3" relative="1" as="geometry">
            <mxPoint as="offset" />
          </mxGeometry>
        </mxCell>
        <mxCell id="y2yPE-2E8iy_GQuQBq91-10" value="rank == 0" style="rhombus;whiteSpace=wrap;html=1;rounded=1;glass=0;strokeWidth=1;shadow=0;fontSize=16;" vertex="1" parent="WIyWlLk6GJQsqaUBKTNV-1">
          <mxGeometry x="180" y="610" width="80" height="80" as="geometry" />
        </mxCell>
        <mxCell id="y2yPE-2E8iy_GQuQBq91-35" value="" style="edgeStyle=none;curved=1;rounded=0;orthogonalLoop=1;jettySize=auto;html=1;fontSize=12;startSize=8;endSize=8;" edge="1" parent="WIyWlLk6GJQsqaUBKTNV-1" source="y2yPE-2E8iy_GQuQBq91-12" target="y2yPE-2E8iy_GQuQBq91-34">
          <mxGeometry relative="1" as="geometry" />
        </mxCell>
        <mxCell id="y2yPE-2E8iy_GQuQBq91-12" value="MPI_Recv()&lt;br&gt;接受0号进程信息" style="whiteSpace=wrap;html=1;fontSize=16;rounded=1;glass=0;strokeWidth=1;shadow=0;" vertex="1" parent="WIyWlLk6GJQsqaUBKTNV-1">
          <mxGeometry x="365" y="730" width="130" height="60" as="geometry" />
        </mxCell>
        <mxCell id="y2yPE-2E8iy_GQuQBq91-17" value="" style="edgeStyle=none;curved=1;rounded=0;orthogonalLoop=1;jettySize=auto;html=1;fontSize=12;startSize=8;endSize=8;" edge="1" parent="WIyWlLk6GJQsqaUBKTNV-1" source="y2yPE-2E8iy_GQuQBq91-14" target="y2yPE-2E8iy_GQuQBq91-16">
          <mxGeometry relative="1" as="geometry" />
        </mxCell>
        <mxCell id="y2yPE-2E8iy_GQuQBq91-14" value="MPI_Send()&lt;br&gt;分发矩阵行" style="whiteSpace=wrap;html=1;fontSize=16;rounded=1;glass=0;strokeWidth=1;shadow=0;" vertex="1" parent="WIyWlLk6GJQsqaUBKTNV-1">
          <mxGeometry x="160" y="730" width="120" height="60" as="geometry" />
        </mxCell>
        <mxCell id="y2yPE-2E8iy_GQuQBq91-27" value="" style="edgeStyle=none;curved=1;rounded=0;orthogonalLoop=1;jettySize=auto;html=1;fontSize=12;startSize=8;endSize=8;" edge="1" parent="WIyWlLk6GJQsqaUBKTNV-1" source="y2yPE-2E8iy_GQuQBq91-16" target="y2yPE-2E8iy_GQuQBq91-26">
          <mxGeometry relative="1" as="geometry" />
        </mxCell>
        <mxCell id="y2yPE-2E8iy_GQuQBq91-16" value="MPI_Recv()&lt;br&gt;接受计算结果" style="whiteSpace=wrap;html=1;fontSize=16;rounded=1;glass=0;strokeWidth=1;shadow=0;" vertex="1" parent="WIyWlLk6GJQsqaUBKTNV-1">
          <mxGeometry x="160" y="880" width="120" height="60" as="geometry" />
        </mxCell>
        <mxCell id="y2yPE-2E8iy_GQuQBq91-21" value="" style="endArrow=none;html=1;rounded=0;fontSize=12;startSize=8;endSize=8;curved=1;exitX=0;exitY=0.5;exitDx=0;exitDy=0;" edge="1" parent="WIyWlLk6GJQsqaUBKTNV-1" source="y2yPE-2E8iy_GQuQBq91-16">
          <mxGeometry width="50" height="50" relative="1" as="geometry">
            <mxPoint x="230" y="850" as="sourcePoint" />
            <mxPoint x="80" y="910" as="targetPoint" />
          </mxGeometry>
        </mxCell>
        <mxCell id="y2yPE-2E8iy_GQuQBq91-22" value="" style="endArrow=none;html=1;rounded=0;fontSize=12;startSize=8;endSize=8;curved=1;" edge="1" parent="WIyWlLk6GJQsqaUBKTNV-1">
          <mxGeometry width="50" height="50" relative="1" as="geometry">
            <mxPoint x="80" y="910" as="sourcePoint" />
            <mxPoint x="80" y="750" as="targetPoint" />
          </mxGeometry>
        </mxCell>
        <mxCell id="y2yPE-2E8iy_GQuQBq91-24" value="循环分发" style="edgeLabel;html=1;align=center;verticalAlign=middle;resizable=0;points=[];fontSize=16;" vertex="1" connectable="0" parent="y2yPE-2E8iy_GQuQBq91-22">
          <mxGeometry x="0.1216" y="-2" relative="1" as="geometry">
            <mxPoint as="offset" />
          </mxGeometry>
        </mxCell>
        <mxCell id="y2yPE-2E8iy_GQuQBq91-23" value="" style="endArrow=classic;html=1;rounded=0;fontSize=12;startSize=8;endSize=8;curved=1;entryX=0.011;entryY=0.372;entryDx=0;entryDy=0;entryPerimeter=0;" edge="1" parent="WIyWlLk6GJQsqaUBKTNV-1">
          <mxGeometry width="50" height="50" relative="1" as="geometry">
            <mxPoint x="80" y="751" as="sourcePoint" />
            <mxPoint x="160" y="751.16" as="targetPoint" />
          </mxGeometry>
        </mxCell>
        <mxCell id="y2yPE-2E8iy_GQuQBq91-29" value="" style="edgeStyle=none;curved=1;rounded=0;orthogonalLoop=1;jettySize=auto;html=1;fontSize=12;startSize=8;endSize=8;" edge="1" parent="WIyWlLk6GJQsqaUBKTNV-1" source="y2yPE-2E8iy_GQuQBq91-26" target="y2yPE-2E8iy_GQuQBq91-28">
          <mxGeometry relative="1" as="geometry" />
        </mxCell>
        <mxCell id="y2yPE-2E8iy_GQuQBq91-26" value="MPI_Sned()&lt;br&gt;通知结束" style="whiteSpace=wrap;html=1;fontSize=16;rounded=1;glass=0;strokeWidth=1;shadow=0;" vertex="1" parent="WIyWlLk6GJQsqaUBKTNV-1">
          <mxGeometry x="160" y="980" width="120" height="60" as="geometry" />
        </mxCell>
        <mxCell id="y2yPE-2E8iy_GQuQBq91-31" value="" style="edgeStyle=none;curved=1;rounded=0;orthogonalLoop=1;jettySize=auto;html=1;fontSize=12;startSize=8;endSize=8;" edge="1" parent="WIyWlLk6GJQsqaUBKTNV-1" source="y2yPE-2E8iy_GQuQBq91-28" target="y2yPE-2E8iy_GQuQBq91-30">
          <mxGeometry relative="1" as="geometry" />
        </mxCell>
        <mxCell id="y2yPE-2E8iy_GQuQBq91-28" value="输出答案" style="whiteSpace=wrap;html=1;fontSize=16;rounded=1;glass=0;strokeWidth=1;shadow=0;" vertex="1" parent="WIyWlLk6GJQsqaUBKTNV-1">
          <mxGeometry x="160" y="1080" width="120" height="60" as="geometry" />
        </mxCell>
        <mxCell id="y2yPE-2E8iy_GQuQBq91-54" value="" style="edgeStyle=none;curved=1;rounded=0;orthogonalLoop=1;jettySize=auto;html=1;fontSize=12;startSize=8;endSize=8;" edge="1" parent="WIyWlLk6GJQsqaUBKTNV-1" source="y2yPE-2E8iy_GQuQBq91-30" target="y2yPE-2E8iy_GQuQBq91-53">
          <mxGeometry relative="1" as="geometry" />
        </mxCell>
        <mxCell id="y2yPE-2E8iy_GQuQBq91-30" value="MPI_Finalize()" style="whiteSpace=wrap;html=1;fontSize=16;rounded=1;glass=0;strokeWidth=1;shadow=0;" vertex="1" parent="WIyWlLk6GJQsqaUBKTNV-1">
          <mxGeometry x="160" y="1170" width="120" height="60" as="geometry" />
        </mxCell>
        <mxCell id="y2yPE-2E8iy_GQuQBq91-32" value="" style="endArrow=none;html=1;rounded=0;fontSize=12;startSize=8;endSize=8;curved=1;exitX=1;exitY=0.5;exitDx=0;exitDy=0;" edge="1" parent="WIyWlLk6GJQsqaUBKTNV-1" source="y2yPE-2E8iy_GQuQBq91-10">
          <mxGeometry width="50" height="50" relative="1" as="geometry">
            <mxPoint x="390" y="830" as="sourcePoint" />
            <mxPoint x="440" y="650" as="targetPoint" />
          </mxGeometry>
        </mxCell>
        <mxCell id="y2yPE-2E8iy_GQuQBq91-36" value="N" style="edgeLabel;html=1;align=center;verticalAlign=middle;resizable=0;points=[];fontSize=16;" vertex="1" connectable="0" parent="y2yPE-2E8iy_GQuQBq91-32">
          <mxGeometry x="0.0191" relative="1" as="geometry">
            <mxPoint as="offset" />
          </mxGeometry>
        </mxCell>
        <mxCell id="y2yPE-2E8iy_GQuQBq91-33" value="" style="endArrow=classic;html=1;rounded=0;fontSize=12;startSize=8;endSize=8;curved=1;entryX=0.562;entryY=-0.022;entryDx=0;entryDy=0;entryPerimeter=0;" edge="1" parent="WIyWlLk6GJQsqaUBKTNV-1" target="y2yPE-2E8iy_GQuQBq91-12">
          <mxGeometry width="50" height="50" relative="1" as="geometry">
            <mxPoint x="440" y="650" as="sourcePoint" />
            <mxPoint x="440" y="720" as="targetPoint" />
          </mxGeometry>
        </mxCell>
        <mxCell id="y2yPE-2E8iy_GQuQBq91-42" value="N" style="edgeStyle=none;curved=1;rounded=0;orthogonalLoop=1;jettySize=auto;html=1;fontSize=12;startSize=8;endSize=8;" edge="1" parent="WIyWlLk6GJQsqaUBKTNV-1" source="y2yPE-2E8iy_GQuQBq91-34" target="y2yPE-2E8iy_GQuQBq91-41">
          <mxGeometry relative="1" as="geometry" />
        </mxCell>
        <mxCell id="y2yPE-2E8iy_GQuQBq91-34" value="Tag == 0&amp;nbsp;" style="rhombus;whiteSpace=wrap;html=1;fontSize=16;rounded=1;glass=0;strokeWidth=1;shadow=0;" vertex="1" parent="WIyWlLk6GJQsqaUBKTNV-1">
          <mxGeometry x="390" y="970" width="80" height="80" as="geometry" />
        </mxCell>
        <mxCell id="y2yPE-2E8iy_GQuQBq91-38" value="" style="endArrow=none;html=1;rounded=0;fontSize=12;startSize=8;endSize=8;curved=1;entryX=0.5;entryY=1;entryDx=0;entryDy=0;" edge="1" parent="WIyWlLk6GJQsqaUBKTNV-1" target="y2yPE-2E8iy_GQuQBq91-34">
          <mxGeometry width="50" height="50" relative="1" as="geometry">
            <mxPoint x="430" y="1200" as="sourcePoint" />
            <mxPoint x="350" y="860" as="targetPoint" />
          </mxGeometry>
        </mxCell>
        <mxCell id="y2yPE-2E8iy_GQuQBq91-52" value="Y" style="edgeLabel;html=1;align=center;verticalAlign=middle;resizable=0;points=[];fontSize=16;" vertex="1" connectable="0" parent="y2yPE-2E8iy_GQuQBq91-38">
          <mxGeometry x="-0.0272" y="3" relative="1" as="geometry">
            <mxPoint as="offset" />
          </mxGeometry>
        </mxCell>
        <mxCell id="y2yPE-2E8iy_GQuQBq91-39" value="" style="endArrow=classic;html=1;rounded=0;fontSize=12;startSize=8;endSize=8;curved=1;entryX=1;entryY=0.5;entryDx=0;entryDy=0;" edge="1" parent="WIyWlLk6GJQsqaUBKTNV-1" target="y2yPE-2E8iy_GQuQBq91-30">
          <mxGeometry width="50" height="50" relative="1" as="geometry">
            <mxPoint x="430" y="1200" as="sourcePoint" />
            <mxPoint x="350" y="860" as="targetPoint" />
          </mxGeometry>
        </mxCell>
        <mxCell id="y2yPE-2E8iy_GQuQBq91-40" value="" style="endArrow=none;dashed=1;html=1;dashPattern=1 3;strokeWidth=2;rounded=0;fontSize=12;startSize=8;endSize=8;curved=1;exitX=1;exitY=0.5;exitDx=0;exitDy=0;entryX=0;entryY=0.5;entryDx=0;entryDy=0;" edge="1" parent="WIyWlLk6GJQsqaUBKTNV-1" source="y2yPE-2E8iy_GQuQBq91-14" target="y2yPE-2E8iy_GQuQBq91-12">
          <mxGeometry width="50" height="50" relative="1" as="geometry">
            <mxPoint x="400" y="880" as="sourcePoint" />
            <mxPoint x="450" y="830" as="targetPoint" />
          </mxGeometry>
        </mxCell>
        <mxCell id="y2yPE-2E8iy_GQuQBq91-44" value="" style="edgeStyle=none;curved=1;rounded=0;orthogonalLoop=1;jettySize=auto;html=1;fontSize=12;startSize=8;endSize=8;" edge="1" parent="WIyWlLk6GJQsqaUBKTNV-1" source="y2yPE-2E8iy_GQuQBq91-41" target="y2yPE-2E8iy_GQuQBq91-43">
          <mxGeometry relative="1" as="geometry" />
        </mxCell>
        <mxCell id="y2yPE-2E8iy_GQuQBq91-41" value="pthread_create()&lt;br&gt;pthread_join()&lt;br&gt;多线程计算" style="whiteSpace=wrap;html=1;fontSize=16;rounded=1;glass=0;strokeWidth=1;shadow=0;" vertex="1" parent="WIyWlLk6GJQsqaUBKTNV-1">
          <mxGeometry x="570" y="980" width="120" height="60" as="geometry" />
        </mxCell>
        <mxCell id="y2yPE-2E8iy_GQuQBq91-43" value="MPI_Send()&lt;br&gt;发送计算结果" style="whiteSpace=wrap;html=1;fontSize=16;rounded=1;glass=0;strokeWidth=1;shadow=0;" vertex="1" parent="WIyWlLk6GJQsqaUBKTNV-1">
          <mxGeometry x="570" y="890" width="120" height="60" as="geometry" />
        </mxCell>
        <mxCell id="y2yPE-2E8iy_GQuQBq91-48" value="" style="endArrow=none;html=1;rounded=0;fontSize=12;startSize=8;endSize=8;curved=1;exitX=0.5;exitY=0;exitDx=0;exitDy=0;" edge="1" parent="WIyWlLk6GJQsqaUBKTNV-1" source="y2yPE-2E8iy_GQuQBq91-43">
          <mxGeometry width="50" height="50" relative="1" as="geometry">
            <mxPoint x="470" y="880" as="sourcePoint" />
            <mxPoint x="630" y="760" as="targetPoint" />
          </mxGeometry>
        </mxCell>
        <mxCell id="y2yPE-2E8iy_GQuQBq91-49" value="" style="endArrow=classic;html=1;rounded=0;fontSize=12;startSize=8;endSize=8;curved=1;entryX=1;entryY=0.5;entryDx=0;entryDy=0;" edge="1" parent="WIyWlLk6GJQsqaUBKTNV-1" target="y2yPE-2E8iy_GQuQBq91-12">
          <mxGeometry width="50" height="50" relative="1" as="geometry">
            <mxPoint x="630" y="760" as="sourcePoint" />
            <mxPoint x="520" y="830" as="targetPoint" />
          </mxGeometry>
        </mxCell>
        <mxCell id="y2yPE-2E8iy_GQuQBq91-50" value="" style="endArrow=none;dashed=1;html=1;dashPattern=1 3;strokeWidth=2;rounded=0;fontSize=12;startSize=8;endSize=8;curved=1;exitX=1;exitY=0.5;exitDx=0;exitDy=0;" edge="1" parent="WIyWlLk6GJQsqaUBKTNV-1" source="y2yPE-2E8iy_GQuQBq91-26">
          <mxGeometry width="50" height="50" relative="1" as="geometry">
            <mxPoint x="450" y="750" as="sourcePoint" />
            <mxPoint x="330" y="1010" as="targetPoint" />
          </mxGeometry>
        </mxCell>
        <mxCell id="y2yPE-2E8iy_GQuQBq91-51" value="" style="endArrow=none;dashed=1;html=1;dashPattern=1 3;strokeWidth=2;rounded=0;fontSize=12;startSize=8;endSize=8;curved=1;" edge="1" parent="WIyWlLk6GJQsqaUBKTNV-1">
          <mxGeometry width="50" height="50" relative="1" as="geometry">
            <mxPoint x="330" y="1010" as="sourcePoint" />
            <mxPoint x="330" y="760" as="targetPoint" />
          </mxGeometry>
        </mxCell>
        <mxCell id="y2yPE-2E8iy_GQuQBq91-53" value="结束" style="whiteSpace=wrap;html=1;fontSize=16;rounded=1;glass=0;strokeWidth=1;shadow=0;" vertex="1" parent="WIyWlLk6GJQsqaUBKTNV-1">
          <mxGeometry x="160" y="1280" width="120" height="60" as="geometry" />
        </mxCell>
      </root>
    </mxGraphModel>
  </diagram>
</mxfile>
